<svg xmlns="http://www.w3.org/2000/svg" viewBox="0 0 30.65 44.5"><g id="Layer_2" data-name="Layer 2"><g id="pollen_grass__medium"><path class="pollen--medium pollen_grass--medium pollen_grass_left--medium" style="fill:var(--pollen-color--medium,var(--pollen_grass-color--medium,var(--pollen_grass_left-color--medium,#f79f23)));" d="M0,10.39A74.69,74.69,0,0,1,5.77,26.21,66.2,66.2,0,0,1,7.59,43v.14A1.4,1.4,0,0,0,9,44.49a1.45,1.45,0,0,0,1.24-1.59A67.57,67.57,0,0,0,7,25.76,73.49,73.49,0,0,0,0,10.39Z"/><path class="pollen_grass--medium pollen_grass_left--medium" style="fill:var(--pollen-color--medium,var(--pollen_grass-color--medium,var(--pollen_grass_right-color--medium,#f79f23)));" d="M18.79,41.75q.53-8.7.59-17.41c.32-1,.65-1.91,1-2.86A76.65,76.65,0,0,1,30.65,2,75.84,75.84,0,0,0,19.39,20.37q0-10.2-.72-20.37.06,12-.76,23.9A108.4,108.4,0,0,0,14,35.77c-.15-4.32,0-8.74-.19-13.15a58.65,58.65,0,0,0-1.14-10.17,22.9,22.9,0,0,0-3.8-9.19A22.77,22.77,0,0,1,12,12.6a57.88,57.88,0,0,1,.47,10c-.2,6.71-1.08,13.47-.54,20.48,0,0,0,.08,0,.12a1.35,1.35,0,0,0,1.53,1.23h0A1.36,1.36,0,0,0,15,43.21a110.88,110.88,0,0,1,2.31-11.75q-.51,5.67-1.23,11.3a.37.37,0,0,0,0,.11,1.44,1.44,0,0,0,1.22,1.6,1.33,1.33,0,0,0,1.37-1.08,1.31,1.31,0,0,0,2.6-.29,73,73,0,0,1,2.61-15.46,54.13,54.13,0,0,1,6.22-14.22,53.55,53.55,0,0,0-7.46,13.69A74.17,74.17,0,0,0,18.79,41.75Z"/></g></g></svg>