<svg xmlns="http://www.w3.org/2000/svg" viewBox="0 0 32.25 44.73"><defs><style>.cls-1{fill:#fcc449;}</style></defs><g id="Layer_2" data-name="Layer 2"><g id="pollen_weed"><path class="cls-1" d="M32.13,38.15a12,12,0,0,0-2.3-2.42l1-.12-.14-.18A5.36,5.36,0,0,0,28.84,34,2.19,2.19,0,0,0,30,33.49l.26-.22h-.34a6.64,6.64,0,0,1-3.29-.85A4.58,4.58,0,0,0,30.23,32l.34-.21L28,31.58A2.53,2.53,0,0,0,25.84,31l.19-.33-.14-.05a15.4,15.4,0,0,0-6-1.42,6.23,6.23,0,0,0-3,.92,47.46,47.46,0,0,1,.74-8.24v0c.46-1,1-1.61,1.61-1.62h0a1.08,1.08,0,0,1,.94.75,5.54,5.54,0,0,1,.32,1.17c.07.3.13.6.22.88.13.44.42.9.75.93.12,0,.29,0,.42-.29l0-.05-.47-1.73a.14.14,0,0,1,.09-.08c.1,0,.28.23.37.6a8.73,8.73,0,0,1,.12.93,7.71,7.71,0,0,0,.11.84c.07.41.29.87.57.92a.31.31,0,0,0,.34-.17l0,0,0-.44a2.52,2.52,0,0,0,.27,1,.33.33,0,0,0,.38.14l.09,0a4.2,4.2,0,0,0,1.41,2.86,1.07,1.07,0,0,0,.62.19,1.06,1.06,0,0,0,.31,0l.12-.05-.05-.12a12.46,12.46,0,0,0-1.32-2.47l.54-.11-.07-.14a4.06,4.06,0,0,0-1-1.47,1.21,1.21,0,0,0,.66-.53l.12-.2h-.23a2.56,2.56,0,0,1-1.76-.82,1.76,1.76,0,0,0,.58.14,1.81,1.81,0,0,0,1.41-.66l.17-.18-1.41-.18a1.4,1.4,0,0,0-.8-.62.77.77,0,0,0-.4,0l.09-.29-.08-.06c-1-.72-2.21-1.54-3.4-1.48a3.3,3.3,0,0,0-2.6,2.37l0-2.32c0-.22,0-.65,0-1.21.07-1.37.16-3.4.14-5l.1.06v-.89c.29-.06.35-.15.44-.59A3.51,3.51,0,0,0,17.45,10h0c.23.07.39.09.6-.28a1.79,1.79,0,0,0,.05-1.58l0-.07h-.15a1,1,0,0,0,.33-1,1,1,0,0,0-.11-.27,1.14,1.14,0,0,0-.07-.46.56.56,0,0,0-.11-.2,1.14,1.14,0,0,0,.14-.8l0-.08-.44-.09a7.77,7.77,0,0,1,.24-3.11h0l-.15,0,0-.1-.25,0V1.76c0-.58,0-1.3-.52-1.65a.68.68,0,0,0-.82.06,2.2,2.2,0,0,0-.62.9.42.42,0,0,0,0,.17s0,0,0,0a1.65,1.65,0,0,0,.06.32,1.92,1.92,0,0,1,.05.41,1.83,1.83,0,0,1-.14.71,1.59,1.59,0,0,1-.22.42.15.15,0,0,1,.08,0l0,.24h0l.37.07a1.82,1.82,0,0,0-.09.37A1.28,1.28,0,0,0,15.15,5a.91.91,0,0,0,.18.37.66.66,0,0,0,0,.24.42.42,0,0,0,0,.12,2,2,0,0,0-.51,1.83l0,.1.69,0a2.07,2.07,0,0,0-.46.58,2.49,2.49,0,0,0-.3.38l0,0h0l.14.09a.31.31,0,0,1,0,.08h0a2.22,2.22,0,0,0,0,.89l0,.09.56,0a2.43,2.43,0,0,0-.64,2.07l0,.1h.7v.32l.05,0h0c-.12,0-.13.14-.14.43l0,.62a20.37,20.37,0,0,0,0,2.21,3.85,3.85,0,0,0,.08.49v1.5s0-.05-.05-.06A5.8,5.8,0,0,0,12,16.25l-.1,0-.08.28a1.09,1.09,0,0,0-1.26-.37l-1.23-.9,0,.29a2.23,2.23,0,0,0,.86,1.6,1.83,1.83,0,0,0,.46.24,2.54,2.54,0,0,1-1.83-.63l-.2-.19v.28a1.55,1.55,0,0,0,.23.88,3.25,3.25,0,0,0-1.59.4l-.13.06.36.48a9.42,9.42,0,0,0-2.35,1L5,19.69l.07.11a1.14,1.14,0,0,0,1,.58h.15a3.55,3.55,0,0,0,2.32-1.25.5.5,0,0,0,.05.13.32.32,0,0,0,.36.14,2.24,2.24,0,0,0,.87-.71l0-.05-.42.54v0a.38.38,0,0,0,.21.38c.26.12.66-.09.92-.34s.36-.39.53-.59a5.93,5.93,0,0,1,.58-.63c.23-.2.48-.27.58-.21a.15.15,0,0,1,.05.16L11,19v.05a.51.51,0,0,0,.21.54,1.06,1.06,0,0,0,1-.23,8,8,0,0,0,.64-.54,4.39,4.39,0,0,1,.87-.68.92.92,0,0,1,1.12.09,1.87,1.87,0,0,1,.49,1.24l0,.24.11-.09q0,.57.06,1.11l-.3,2.11v.05a8.43,8.43,0,0,1,.3,2.46l0,1.69a7,7,0,0,0-1.48-.88,15.12,15.12,0,0,0-6.08-.82H7.91l.08.37a2.47,2.47,0,0,0-2.19-.24l-2.5-.77.28.32a4.93,4.93,0,0,0,3.36,1.77,6.56,6.56,0,0,1-3.36-.38l-.35-.14.19.32a2.58,2.58,0,0,0,.94.89,4.74,4.74,0,0,0-2.08.71l-.19.11.88.46A10.7,10.7,0,0,0,.15,30.25L0,30.36l.16.1a3,3,0,0,0,1.62.44,3.3,3.3,0,0,0,1-.17,3.64,3.64,0,0,0,2-1.72.94.94,0,0,0,.09.12.64.64,0,0,0,.67.2,1.75,1.75,0,0,0,.82-.93,2,2,0,0,1,.44-.62l-.5,1.27,0,.06a.67.67,0,0,0,.58.33,1.21,1.21,0,0,0,1-.54,4.1,4.1,0,0,0,.39-.75,3.75,3.75,0,0,1,.44-.79A.86.86,0,0,1,9.49,27a.44.44,0,0,1,.32.22L8.59,28.6l0,.07a.9.9,0,0,0,.67.52,1.57,1.57,0,0,0,1.28-.44,6.53,6.53,0,0,0,.59-.71,3.39,3.39,0,0,1,.83-.89,2,2,0,0,1,1.88-.08,4,4,0,0,1,1.76,1.43l0,2.59,0,0-.07.08.07.09s0,0,0,0l.07,4a4,4,0,0,0-3.23-2.19c-1.56,0-3.1,1-4.44,2l-.08,0,.14.39a1.49,1.49,0,0,0-1.6.78l-1.84.28.2.18a2.45,2.45,0,0,0,1.88.71,2.33,2.33,0,0,0,.92-.27,3.7,3.7,0,0,1-2.46,1.22H5l.15.2a1.5,1.5,0,0,0,.93.61,5,5,0,0,0-1.36,1.85l-.07.15.73.11a14.46,14.46,0,0,0-1.67,3.08l-.05.13.13,0a1,1,0,0,0,.39.05,1.55,1.55,0,0,0,.9-.32,5.18,5.18,0,0,0,1.64-3.52.54.54,0,0,0,.16.1.41.41,0,0,0,.46-.17,3.29,3.29,0,0,0,.34-1.41,6.17,6.17,0,0,1,.09-.64l0,1.38,0,0a.41.41,0,0,0,.43.17c.33-.08.59-.62.68-1.11a8.76,8.76,0,0,0,.1-1A8.15,8.15,0,0,1,9.09,37c.09-.43.33-.75.5-.77s.11,0,.17.11L9.22,38.5l0,0a.54.54,0,0,0,.54.31c.42,0,.76-.61.92-1.14.1-.34.17-.71.24-1.07a7.2,7.2,0,0,1,.38-1.44,1.41,1.41,0,0,1,1.25-1h0c1.41,0,2.61,2,3.24,4.38l.1,5.23v.09c0,.41,0,.71.23.79a.11.11,0,0,0,.08,0,.48.48,0,0,0,.32-.2A3,3,0,0,0,17.21,43a3.42,3.42,0,0,0,0-.85l0-.26c-.05-.53-.08-1-.1-1.47,0-.3,0-.57,0-.86.54-1.93,1.61-3.63,3-3.65h0a1.36,1.36,0,0,1,1.24.75,5,5,0,0,1,.41,1.17,8.94,8.94,0,0,0,.27.88c.2.51.56.88.91.91a.53.53,0,0,0,.52-.28l0-.05-.59-1.73a.17.17,0,0,1,.16-.09c.16,0,.39.26.49.61a5.35,5.35,0,0,1,.16.92,6.24,6.24,0,0,0,.13.85c.09.38.34.82.68.9a.42.42,0,0,0,.42-.15l0,0-.08-1.1a3.7,3.7,0,0,1,.09.48,2.42,2.42,0,0,0,.38,1.16.4.4,0,0,0,.48.11l.12-.07a4.23,4.23,0,0,0,1.53,2.74,1.77,1.77,0,0,0,1,.34,1.57,1.57,0,0,0,.37,0l.15,0L28.9,44a11.87,11.87,0,0,0-1.68-2.45l.69-.11-.09-.16a4.37,4.37,0,0,0-1.33-1.45,1.47,1.47,0,0,0,.83-.53l.17-.2h-.27a3.82,3.82,0,0,1-2.31-.84,2.51,2.51,0,0,0,2.58-.49l.23-.19-1.83-.18a1.52,1.52,0,0,0-1.55-.59l.13-.31-.1-.06A8.69,8.69,0,0,0,20,35a3.9,3.9,0,0,0-2.94,1.75c0-.13,0-.27,0-.39a17.25,17.25,0,0,1,0-1.9l0-.67L17,34c-.06-.76-.08-1.53-.1-2.29a4.09,4.09,0,0,1,3-1.61h0a2.16,2.16,0,0,1,1.77.76,3.9,3.9,0,0,1,.56,1.16,6.82,6.82,0,0,0,.37.88,1.68,1.68,0,0,0,1.17.89.84.84,0,0,0,.72-.26l.05-.06-.81-1.73a.35.35,0,0,1,.31-.09,1,1,0,0,1,.69.61,3.78,3.78,0,0,1,.21.91,4.74,4.74,0,0,0,.17.85,1.4,1.4,0,0,0,.83.88.62.62,0,0,0,.6-.13l0,0-.14-1.36a2.34,2.34,0,0,1,.26.73,2,2,0,0,0,.52,1.17.62.62,0,0,0,.7,0,.5.5,0,0,0,.12-.08,4.16,4.16,0,0,0,1.58,2.46,3.17,3.17,0,0,0,1.93.66,2.22,2.22,0,0,0,.51-.06l.19,0Z"/></g></g></svg>