<?xml version="1.0" encoding="UTF-8" standalone="no"?>
<!DOCTYPE svg PUBLIC "-//W3C//DTD SVG 1.1//EN" "http://www.w3.org/Graphics/SVG/1.1/DTD/svg11.dtd">
<svg width="100%" height="100%" viewBox="0 0 1182 1182" version="1.1" xmlns="http://www.w3.org/2000/svg" xmlns:xlink="http://www.w3.org/1999/xlink" xml:space="preserve" xmlns:serif="http://www.serif.com/" style="fill-rule:evenodd;clip-rule:evenodd;stroke-linejoin:round;stroke-miterlimit:2;">
    <g transform="matrix(1,0,0,1,-1277.2,-1.13687e-13)">
        <g id="Artboard1" transform="matrix(0.47619,0,0,0.3367,1277.2,1.13687e-13)">
            <rect x="0" y="0" width="2480.32" height="3507.87" style="fill:none;"/>
            <g transform="matrix(2.1,0,0,2.97,-2682.12,-3.3765e-13)">
                <g id="Circles">
                    <path d="M2092.55,100.93C2092.29,98.817 2092.16,96.668 2092.16,94.488C2092.16,65.154 2115.98,41.339 2145.31,41.339C2173.68,41.339 2196.88,63.608 2198.38,91.6C2295.65,108.401 2369.72,193.257 2369.72,295.276C2369.72,409.353 2277.1,501.969 2163.03,501.969C2141.85,501.969 2121.42,498.778 2102.18,492.853C2114,521.133 2120.84,552.009 2121.61,584.376C2140.75,573.28 2162.96,566.929 2186.65,566.929C2258.35,566.929 2316.57,625.145 2316.57,696.85C2316.57,768.556 2258.35,826.772 2186.65,826.772C2133.02,826.772 2086.94,794.208 2067.11,747.785C2057.76,759.621 2047.37,770.606 2036.09,780.61C2112.75,802.471 2168.93,873.073 2168.93,956.693C2168.93,1057.73 2086.9,1139.76 1985.86,1139.76C1939.43,1139.76 1897.02,1122.44 1864.72,1093.91C1855.05,1103.97 1841.46,1110.24 1826.41,1110.24C1797.08,1110.24 1773.26,1086.42 1773.26,1057.09C1773.26,1033.59 1788.54,1013.64 1809.69,1006.62C1805.2,990.751 1802.79,974.001 1802.79,956.693C1802.79,913.852 1817.54,874.429 1842.23,843.22C1743.41,833.348 1661.19,766.698 1628.71,676.39C1600.86,700.189 1564.71,714.567 1525.23,714.567C1437.23,714.567 1365.78,643.12 1365.78,555.118C1365.78,467.116 1437.23,395.669 1525.23,395.669C1576.54,395.669 1622.22,419.953 1651.38,457.636C1696.1,385.044 1776.32,336.614 1867.75,336.614C1902.37,336.614 1935.38,343.556 1965.45,356.118C1959.52,336.882 1956.33,316.448 1956.33,295.276C1956.33,205.942 2013.13,129.769 2092.55,100.93ZM2222.08,992.126C2241.64,992.126 2257.51,1008 2257.51,1027.56C2257.51,1047.12 2241.64,1062.99 2222.08,1062.99C2202.53,1062.99 2186.65,1047.12 2186.65,1027.56C2186.65,1008 2202.53,992.126 2222.08,992.126ZM2222.08,1004.21C2234.97,1004.21 2245.43,1014.67 2245.43,1027.56C2245.43,1040.45 2234.97,1050.91 2222.08,1050.91C2209.2,1050.91 2198.73,1040.45 2198.73,1027.56C2198.73,1014.67 2209.2,1004.21 2222.08,1004.21ZM1755.55,838.583C1768.58,838.583 1779.17,849.167 1779.17,862.205C1779.17,875.242 1768.58,885.827 1755.55,885.827C1742.51,885.827 1731.92,875.242 1731.92,862.205C1731.92,849.167 1742.51,838.583 1755.55,838.583ZM1755.55,846.638C1764.14,846.638 1771.11,853.613 1771.11,862.205C1771.11,870.796 1764.14,877.771 1755.55,877.771C1746.95,877.771 1739.98,870.796 1739.98,862.205C1739.98,853.613 1746.95,846.638 1755.55,846.638ZM1407.12,708.661C1420.16,708.661 1430.74,719.246 1430.74,732.283C1430.74,745.321 1420.16,755.906 1407.12,755.906C1394.08,755.906 1383.5,745.321 1383.5,732.283C1383.5,719.246 1394.08,708.661 1407.12,708.661ZM2328.38,602.362C2334.9,602.362 2340.19,607.655 2340.19,614.173C2340.19,620.692 2334.9,625.984 2328.38,625.984C2321.86,625.984 2316.57,620.692 2316.57,614.173C2316.57,607.655 2321.86,602.362 2328.38,602.362ZM1767.36,312.992C1773.88,312.992 1779.17,318.284 1779.17,324.803C1779.17,331.322 1773.88,336.614 1767.36,336.614C1760.84,336.614 1755.55,331.322 1755.55,324.803C1755.55,318.284 1760.84,312.992 1767.36,312.992ZM1726.02,183.071C1755.35,183.071 1779.17,206.886 1779.17,236.22C1779.17,265.555 1755.35,289.37 1726.02,289.37C1696.68,289.37 1672.87,265.555 1672.87,236.22C1672.87,206.886 1696.68,183.071 1726.02,183.071ZM1684.68,106.299C1697.72,106.299 1708.3,116.884 1708.3,129.921C1708.3,142.959 1697.72,153.543 1684.68,153.543C1671.64,153.543 1661.06,142.959 1661.06,129.921C1661.06,116.884 1671.64,106.299 1684.68,106.299Z" style="fill:url(#_Linear1);"/>
                </g>
            </g>
        </g>
    </g>
    <defs>
        <linearGradient id="_Linear1" x1="0" y1="0" x2="1" y2="0" gradientUnits="userSpaceOnUse" gradientTransform="matrix(1003.94,0,0,1098.43,1365.78,590.551)"><stop offset="0" style="stop-color:rgb(153,0,30);stop-opacity:1"/><stop offset="1" style="stop-color:rgb(255,179,58);stop-opacity:1"/></linearGradient>
    </defs>
</svg>
