<svg height="512" viewBox="0 0 56 56" width="512" xmlns="http://www.w3.org/2000/svg"><g id="013---Pocket-Knife"><path id="Shape" d="m29 44v-2h-2v2c0 .5522847-.4477153 1-1 1h-2v2h2c.5522847 0 1 .4477153 1 1v2h2v-2c0-.5522847.4477153-1 1-1h2v-2h-2c-.5522847 0-1-.4477153-1-1z"/><circle id="Oval" cx="28" cy="8" r="4"/><path id="Shape" d="m15.11 26.9-.26-2.27-1.47-.17c-.9181771-.1037894-1.6457243-.823069-1.76-1.74l-.17-1.49-1.45-.16c-.92802992-.1065841-1.65867553-.8413811-1.76-1.77l-.16-1.46-1.45-.16c-.93582101-.0978351-1.67689424-.834745-1.78-1.77l-.16-1.45-1.49-.18c-.92472543-.1056711-1.65432887-.8352746-1.76-1.76l-.1-.94c-.04126923-.3359096-.32656479-.5882993-.665-.5882993s-.62373077.2523897-.665.5882993c-.0942383 3.39076.70591353 6.7465692 2.32 9.73 2.49 4.62 1.9 3.51 15.67 17.28v-8.49c-2.84-2.84-2.84-2.73-2.89-3.2z"/><path id="Shape" d="m9 46h-4c-1.1045695 0-2-.8954305-2-2h-3c0 2.209139 1.790861 4 4 4h14v-4h-7c0 1.1045695-.8954305 2-2 2z"/><path id="Shape" d="m28 0c-4.418278 0-8 3.581722-8 8v40c0 4.418278 3.581722 8 8 8s8-3.581722 8-8v-40c0-4.418278-3.581722-8-8-8zm-6 16c0-.5522847.4477153-1 1-1s1 .4477153 1 1v2c0 .5522847-.4477153 1-1 1s-1-.4477153-1-1zm0 6c0-.5522847.4477153-1 1-1s1 .4477153 1 1v16c0 .5522847-.4477153 1-1 1s-1-.4477153-1-1zm12 25c0 1.1045695-.8954305 2-2 2h-1v1c0 1.1045695-.8954305 2-2 2h-2c-1.1045695 0-2-.8954305-2-2v-1h-1c-1.1045695 0-2-.8954305-2-2v-2c0-1.1045695.8954305-2 2-2h1v-1c0-1.1045695.8954305-2 2-2h2c1.1045695 0 2 .8954305 2 2v1h1c1.1045695 0 2 .8954305 2 2zm-6-33c-3.3137085 0-6-2.6862915-6-6s2.6862915-6 6-6 6 2.6862915 6 6c0 1.59129894-.632141 3.1174224-1.7573593 4.2426407s-2.6513418 1.7573593-4.2426407 1.7573593z"/><path id="Shape" d="m40.8 22.39 15 15c-1.350702-3.2222032-3.3213622-6.1476143-5.8-8.61l-12-12v8.5l7.78 7.72c2.4629388 2.4657842 5.3844705 4.4259281 8.6 5.77l-15-15c-.2853762-.2443899-.4096819-.6281184-.3218101-.993419.0878718-.3653005.3730906-.6505193.7383911-.7383911.3653006-.0878718.7490291.0364339.993419.3218101z"/><path id="Shape" d="m38 7c.0346194.66621723.0346194 1.33378277 0 2h17l1-1-1-1z"/></g></svg>