<svg viewBox="0 0 102 36" fill="none" xmlns="http://www.w3.org/2000/svg">
<g>
<path d="M2.8534 33.1466H33.1466V2.8534H2.8534V33.1466ZM36 36H0V0H36V36Z" fill="#212528"/>
<path d="M17.997 10.0169C18.8735 10.0169 19.5808 9.30957 19.5808 8.433C19.5808 7.55643 18.8735 6.84912 17.997 6.84912C17.1204 6.84912 16.4131 7.55643 16.4131 8.433C16.4131 9.30957 17.1204 10.0169 17.997 10.0169Z" fill="#212528"/>
<path d="M26.5209 29.1507C27.3975 29.1507 28.1048 28.4434 28.1048 27.5668C28.1048 26.6902 27.3975 25.9829 26.5209 25.9829C25.6443 25.9829 24.937 26.6902 24.937 27.5668C24.937 28.4434 25.6443 29.1507 26.5209 29.1507Z" fill="#212528"/>
<path d="M9.47304 29.1507C10.3496 29.1507 11.0569 28.4434 11.0569 27.5668C11.0569 26.6902 10.3496 25.9829 9.47304 25.9829C8.59646 25.9829 7.88916 26.6902 7.88916 27.5668C7.88916 28.4434 8.59646 29.1507 9.47304 29.1507Z" fill="#212528"/>
<path d="M21.9748 23.6556C22.8514 23.6556 23.5587 22.9482 23.5587 22.0717C23.5587 21.1951 22.8514 20.4878 21.9748 20.4878C21.0982 20.4878 20.3909 21.1951 20.3909 22.0717C20.3849 22.9482 21.0982 23.6556 21.9748 23.6556Z" fill="#212528"/>
<path d="M14.0253 23.6673C14.9019 23.6673 15.6092 22.96 15.6092 22.0834C15.6092 21.2068 14.9019 20.4995 14.0253 20.4995C13.1487 20.4995 12.4414 21.2068 12.4414 22.0834C12.4414 22.9539 13.1487 23.6673 14.0253 23.6673Z" fill="#212528"/>
</g>
</svg>
