<svg viewBox="0 0 102 36" fill="none" xmlns="http://www.w3.org/2000/svg">
<g>
<path d="M53.9727 19.5263H50.8593L52.4432 14.9681L53.9727 19.5263ZM51.2221 11.1958L46.7969 23.8608H49.3964L50.1641 21.624H54.6437L55.3933 23.8608H57.9928L53.5495 11.1958H51.2221Z" fill="#212528"/>
<path d="M80.675 19.5263H77.5617L79.1456 14.9681L80.675 19.5263ZM80.2398 11.1958H77.9184L73.4932 23.8608H76.0927L76.8604 21.624H81.334L82.0836 23.8608H84.6831L80.27 11.2804L80.2398 11.1958Z" fill="#212528"/>
<path d="M70.9663 11.1958L69.0015 19.1394L66.7043 11.1958H64.8424L62.5391 19.1394L60.5925 11.1958H57.999L61.3784 23.8608H63.4519L65.7733 16.2134L68.0887 23.8608H70.1683L73.5658 11.1958H70.9663Z" fill="#212528"/>
<path d="M89.2231 11.1958H86.7324V23.8608H89.2231V11.1958Z" fill="#212528"/>
<path d="M98.7386 15.0712C98.7386 15.5608 98.5754 15.9598 98.255 16.2681C97.9285 16.5704 97.4933 16.7215 96.9552 16.7215H94.6399V13.4208H96.9552C97.4933 13.4208 97.9285 13.5719 98.255 13.8742C98.5754 14.1825 98.7386 14.5815 98.7386 15.0712ZM99.5789 18.1059L99.7965 17.9548C100.075 17.7613 100.322 17.5195 100.534 17.2414C100.746 16.9634 100.915 16.643 101.042 16.2863C101.169 15.9296 101.229 15.5246 101.229 15.0772C101.229 14.5452 101.139 14.0435 100.951 13.5719C100.77 13.1004 100.498 12.6893 100.141 12.3447C99.7844 11.9941 99.3492 11.716 98.8414 11.5105C98.3336 11.3049 97.7532 11.2021 97.1124 11.2021H92.1492V23.8671H94.6399V18.8253H96.5804C96.7799 18.8253 97.1547 18.8253 97.4207 18.8132L99.0711 23.8671H101.671L99.5789 18.1059Z" fill="#212528"/>
<path d="M2.8534 33.1466H33.1466V2.8534H2.8534V33.1466ZM36 36H0V0H36V36Z" fill="#212528"/>
<path d="M17.997 10.0169C18.8735 10.0169 19.5808 9.30957 19.5808 8.433C19.5808 7.55643 18.8735 6.84912 17.997 6.84912C17.1204 6.84912 16.4131 7.55643 16.4131 8.433C16.4131 9.30957 17.1204 10.0169 17.997 10.0169Z" fill="#212528"/>
<path d="M26.5209 29.1507C27.3975 29.1507 28.1048 28.4434 28.1048 27.5668C28.1048 26.6902 27.3975 25.9829 26.5209 25.9829C25.6443 25.9829 24.937 26.6902 24.937 27.5668C24.937 28.4434 25.6443 29.1507 26.5209 29.1507Z" fill="#212528"/>
<path d="M9.47304 29.1507C10.3496 29.1507 11.0569 28.4434 11.0569 27.5668C11.0569 26.6902 10.3496 25.9829 9.47304 25.9829C8.59646 25.9829 7.88916 26.6902 7.88916 27.5668C7.88916 28.4434 8.59646 29.1507 9.47304 29.1507Z" fill="#212528"/>
<path d="M21.9748 23.6556C22.8514 23.6556 23.5587 22.9482 23.5587 22.0717C23.5587 21.1951 22.8514 20.4878 21.9748 20.4878C21.0982 20.4878 20.3909 21.1951 20.3909 22.0717C20.3849 22.9482 21.0982 23.6556 21.9748 23.6556Z" fill="#212528"/>
<path d="M14.0253 23.6673C14.9019 23.6673 15.6092 22.96 15.6092 22.0834C15.6092 21.2068 14.9019 20.4995 14.0253 20.4995C13.1487 20.4995 12.4414 21.2068 12.4414 22.0834C12.4414 22.9539 13.1487 23.6673 14.0253 23.6673Z" fill="#212528"/>
</g>
</svg>
